<?xml version="1.0" standalone="no"?>
<!DOCTYPE svg PUBLIC "-//W3C//DTD SVG 20010904//EN"
 "http://www.w3.org/TR/2001/REC-SVG-20010904/DTD/svg10.dtd">
<svg version="1.0" xmlns="http://www.w3.org/2000/svg"
 width="700.000000pt" height="700.000000pt" viewBox="0 0 700.000000 700.000000"
 preserveAspectRatio="xMidYMid meet">
<metadata>
Created by potrace 1.14, written by Peter Selinger 2001-2017
</metadata>
<g transform="translate(0.000000,700.000000) scale(0.100000,-0.100000)"
fill="#000000" stroke="none">
<path d="M1540 6989 c-194 -25 -400 -88 -571 -173 -533 -267 -896 -787 -959
-1372 -8 -80 -10 -612 -8 -2009 3 -1768 5 -1906 21 -1988 76 -377 231 -671
492 -932 263 -263 577 -427 946 -492 99 -17 204 -18 2054 -18 l1950 0 126 27
c721 156 1244 692 1385 1418 18 90 19 196 22 1990 2 1348 0 1924 -8 1995 -80
715 -572 1300 -1262 1499 -225 65 -66 60 -2193 62 -1062 1 -1959 -2 -1995 -7z
m3070 -1479 c208 -33 394 -145 428 -257 28 -94 12 -155 -78 -298 -31 -49 -69
-116 -83 -148 -21 -46 -34 -61 -61 -72 -45 -19 -70 -19 -86 0 -10 12 -8 26 15
76 37 83 58 205 51 301 -12 176 -88 253 -275 280 -92 13 -211 2 -342 -31 -434
-110 -848 -480 -1108 -989 -113 -222 -172 -411 -191 -610 -44 -462 193 -733
640 -733 319 1 566 99 828 329 131 115 281 316 381 512 45 88 121 260 121 275
0 4 -145 5 -322 3 -292 -4 -331 -7 -402 -26 -98 -27 -174 -69 -203 -112 -26
-37 -30 -108 -12 -175 11 -37 10 -40 -17 -62 -16 -13 -36 -23 -45 -23 -10 0
-41 42 -79 106 -54 90 -65 116 -68 163 -12 160 83 255 280 279 41 5 311 7 609
4 l535 -5 0 65 c-1 85 29 135 106 172 88 43 184 54 593 66 505 15 642 2 812
-75 176 -81 263 -227 263 -443 0 -364 -258 -779 -601 -966 -164 -90 -331 -129
-549 -130 -167 -1 -257 16 -383 71 -96 42 -115 40 -214 -21 -110 -68 -171 -80
-203 -40 -25 29 16 77 42 50 18 -18 43 -9 27 10 -8 10 -8 14 -1 14 26 0 87 70
146 169 130 218 486 876 577 1067 31 67 72 138 89 158 l33 37 -69 -6 c-329
-29 -472 -79 -507 -177 -5 -13 -1 -18 12 -18 53 0 65 -29 32 -71 -13 -16 -17
-34 -14 -52 11 -58 -48 -77 -95 -30 -63 63 -171 -8 -263 -172 -49 -88 -140
-368 -264 -815 -112 -404 -156 -536 -235 -716 -174 -396 -438 -687 -761 -838
-200 -93 -373 -133 -542 -123 -267 15 -489 133 -575 305 -42 86 -54 154 -50
287 3 125 16 155 68 155 44 0 49 -14 43 -115 -13 -210 80 -342 282 -400 82
-24 297 -16 405 15 205 59 430 209 592 394 258 297 429 598 620 1090 28 72 53
137 56 145 3 8 -31 -17 -75 -56 -217 -187 -516 -335 -797 -394 -131 -28 -351
-31 -477 -6 -307 61 -518 205 -630 432 -21 44 -39 75 -39 68 0 -21 -136 -187
-212 -259 -164 -155 -333 -186 -427 -79 -36 41 -46 86 -38 171 10 99 57 224
192 505 68 143 121 259 117 257 -18 -7 -607 -636 -628 -670 -13 -21 -36 -45
-51 -54 -16 -10 -51 -40 -79 -67 -37 -35 -58 -48 -74 -45 -44 6 -46 30 -11
107 30 65 33 81 41 223 16 288 23 831 11 824 -18 -11 -56 -93 -140 -300 -104
-254 -177 -413 -244 -533 -152 -269 -278 -394 -468 -460 -169 -58 -334 -5
-421 138 -45 72 -65 241 -32 273 18 19 20 19 44 6 13 -7 21 -26 25 -67 14
-109 53 -169 132 -199 99 -38 224 9 357 136 179 170 297 354 490 761 109 230
144 288 214 358 l45 44 -139 -6 c-153 -7 -251 -25 -312 -56 -106 -54 -119
-150 -32 -240 41 -42 44 -63 9 -81 -36 -20 -60 -10 -122 53 -67 66 -96 117
-104 178 -28 205 181 279 794 279 170 0 204 -2 217 -16 25 -24 -11 -73 -64
-89 -32 -9 -58 -32 -79 -70 -14 -26 -16 -67 -13 -345 2 -173 7 -373 10 -444
l7 -129 498 524 c274 288 522 544 552 569 84 69 158 101 227 99 l56 -2 62 78
c327 411 778 676 1255 738 65 9 304 6 365 -3z"/>
<path d="M2802 4593 c-79 -38 -173 -187 -371 -583 -195 -390 -318 -705 -324
-825 -3 -79 8 -85 87 -46 81 40 145 97 239 214 87 108 101 121 122 113 8 -3
15 -2 15 2 0 4 -5 48 -10 97 -11 100 0 269 26 394 35 171 122 387 224 557 28
46 50 85 50 89 0 10 -25 5 -58 -12z"/>
<path d="M6125 4481 c-52 -13 -75 -34 -129 -116 -76 -114 -131 -216 -318 -590
-91 -181 -189 -374 -217 -428 -64 -122 -65 -142 -8 -194 64 -59 99 -68 267
-68 119 1 159 5 223 23 331 95 572 339 686 695 55 173 58 351 7 462 -47 103
-159 188 -284 214 -58 12 -180 13 -227 2z"/>
</g>
</svg>
