<?xml version="1.0" standalone="no"?>
<!DOCTYPE svg PUBLIC "-//W3C//DTD SVG 20010904//EN"
 "http://www.w3.org/TR/2001/REC-SVG-20010904/DTD/svg10.dtd">
<svg version="1.0" xmlns="http://www.w3.org/2000/svg"
 width="700.000000pt" height="700.000000pt" viewBox="0 0 700.000000 700.000000"
 preserveAspectRatio="xMidYMid meet">
<metadata>
Created by potrace 1.14, written by Peter Selinger 2001-2017
</metadata>
<g transform="translate(0.000000,700.000000) scale(0.100000,-0.100000)"
fill="#000000" stroke="none">
<path d="M4140 5345 c-235 -39 -493 -146 -700 -293 -113 -79 -341 -303 -429
-420 -180 -238 -304 -508 -347 -755 -22 -123 -23 -322 -1 -410 68 -276 317
-462 681 -507 297 -38 640 60 956 271 91 61 238 195 294 269 29 39 32 46 -124
-348 -293 -745 -689 -1214 -1125 -1332 -112 -31 -298 -38 -385 -16 -121 31
-203 94 -252 194 -31 62 -33 74 -35 176 -1 61 -6 112 -11 114 -5 1 -17 -4 -26
-13 -13 -13 -16 -38 -16 -119 0 -169 34 -260 134 -354 105 -99 290 -162 475
-162 189 0 461 98 641 229 181 132 366 363 474 592 82 176 129 313 237 699
189 672 243 815 348 921 46 45 66 58 109 69 53 12 54 12 85 -18 20 -20 37 -28
45 -23 9 6 8 12 -8 26 -25 23 -25 31 -1 38 10 2 24 14 30 26 11 20 9 21 -24
21 -34 0 -35 1 -29 28 21 87 77 129 221 167 77 21 290 45 383 45 l75 -1 -46
-24 c-63 -33 -92 -70 -153 -199 -63 -133 -382 -726 -502 -933 -98 -169 -126
-203 -198 -234 -47 -20 -49 -22 -28 -30 28 -11 63 3 158 60 81 49 117 52 200
15 286 -127 664 -83 949 109 250 170 455 537 455 816 0 260 -131 398 -428 453
-46 9 -164 12 -372 10 -367 -2 -575 -14 -657 -37 -119 -33 -171 -109 -140
-203 l15 -45 -521 5 c-287 3 -556 1 -597 -4 -88 -10 -171 -47 -200 -88 -11
-16 -25 -54 -31 -85 -13 -69 -4 -99 61 -206 42 -70 49 -77 65 -65 15 11 16 18
6 68 -29 140 51 226 252 270 77 17 143 21 395 25 166 3 302 3 302 0 0 -21 -61
-171 -110 -267 -237 -477 -583 -764 -993 -824 -210 -32 -361 -15 -505 55 -152
74 -251 205 -288 379 -19 92 -14 306 11 419 72 329 282 698 544 962 211 212
415 335 671 405 92 25 122 28 240 28 117 0 143 -3 193 -23 75 -30 110 -60 142
-125 49 -101 41 -316 -16 -429 -11 -21 -18 -41 -15 -44 2 -3 18 -2 35 2 24 5
35 17 59 68 16 34 50 95 76 136 75 117 93 191 62 264 -30 71 -155 154 -292
192 -82 23 -360 29 -474 10z m2055 -910 c188 -49 295 -195 295 -405 0 -344
-225 -705 -533 -858 -139 -69 -219 -87 -387 -87 -131 0 -150 3 -198 24 -28 13
-66 39 -83 59 -53 60 -48 72 203 567 214 421 311 595 367 657 14 16 44 35 66
43 53 19 196 19 270 0z"/>
<path d="M2865 4591 c-92 -23 -166 -91 -689 -644 -264 -279 -481 -505 -482
-504 -7 7 -25 818 -19 863 8 69 39 113 99 144 89 46 77 50 -146 50 -344 0
-507 -21 -612 -78 -84 -46 -107 -119 -67 -208 23 -50 115 -144 141 -144 28 0
25 18 -6 43 -34 27 -54 75 -54 132 0 90 95 153 263 174 125 17 380 24 373 12
-4 -6 -13 -11 -19 -11 -28 0 -121 -75 -162 -131 -24 -32 -65 -105 -91 -161
-260 -554 -446 -819 -658 -934 -70 -38 -184 -46 -243 -16 -70 36 -113 106
-113 184 0 34 -9 58 -22 58 -7 0 -9 -27 -6 -72 15 -221 190 -338 401 -267 244
82 407 311 648 912 83 207 120 277 184 344 l55 58 -22 -50 c-21 -48 -23 -69
-30 -435 -9 -465 -17 -563 -52 -635 -14 -28 -26 -55 -26 -58 0 -18 28 -3 53
28 15 19 46 44 68 55 22 12 45 33 52 48 10 24 745 808 736 785 -2 -5 -32 -62
-65 -128 -108 -210 -251 -517 -283 -608 -76 -216 -36 -333 112 -331 80 0 148
35 236 118 75 71 201 225 201 244 0 26 -23 5 -114 -103 -95 -114 -182 -184
-256 -206 -35 -11 -42 -10 -61 7 -46 41 -6 208 119 504 74 174 281 589 360
722 70 117 146 194 198 203 45 7 66 17 72 33 4 13 -25 14 -73 3z"/>
</g>
</svg>
